<svg fill="none" xmlns="http://www.w3.org/2000/svg" viewBox="0 0 96 52">
  <path fill="#fff" d="M0 0h96v52H0z"/>
  <path fill-rule="evenodd" clip-rule="evenodd" d="M92.398 14.688c.071-.02.13-.038.172-.054.144-.053.31-.092.491-.135.356-.083.764-.178 1.149-.424.428-.271 1.08-.742 1.109-2.075l.001 2.817c0 1.058-1.237 1.46-1.817 1.615-.375.098-1.68.392-1.68.392-.57.122-1.052.801-1.052 1.474v-1.965c0-1.169 1.123-1.497 1.627-1.644zm-77.549 10.81l3.246 4.508h1.722l-3.386-4.593c1.595-.46 2.546-1.535 2.519-3.07-.07-2.346-1.904-2.876-3.724-2.876h-2.322v10.54h1.483v-4.51h.462zm-.462-4.803h.742c1.134 0 2.295.28 2.35 1.69.056 1.34-1.285 1.94-2.531 1.94h-.56v-3.63zM30.3 30.006l-1.273-2.722h-4.563l-1.218 2.722h-1.51l4.925-10.944 5.193 10.944h-1.555zm-3.64-7.692l-1.679 3.797h3.486l-1.806-3.797zm9.042 7.692v-7.524l7.92 7.832V19.467h-1.427v7.44l-7.95-7.79v10.89h1.457zm26.308 0l-1.344-6.617-3.246 7.022-3.274-6.799-1.387 6.394h-1.426l2.253-10.875 3.82 8.126 3.765-8.14 2.266 10.89H62.01zm4.086-10.54l.03 10.54h5.554V28.61h-4.17V24.8h4.114v-1.243H67.51v-2.695h4.17v-1.395h-5.584zm8.173 10.54v-10.54h1.427v9.144H78.9v1.396h-4.632zm-56.57 9.758v-4.71h1.288V34.5h-3.114v.552h1.245v4.711h.58zm4.982-4.71v1.548h2.05v.524h-2.078v2.087h2.134v.551H22.07v-5.262h2.73v.551h-2.12zm31.696 2.393l1.595 2.317h.707l-1.671-2.366c.748-.062 1.316-.488 1.335-1.417.029-1.096-.79-1.48-1.706-1.48h-1.002v5.263h.58v-2.317h.162zm-.147-2.394h.463c.56 0 1.063.175 1.063.928-.007.642-.58.977-1.148.977h-.378v-1.905zm27.968 4.711l-1.596-2.317h-.16v2.317h-.582v-5.263h1c.917 0 1.736.384 1.709 1.48-.022.929-.588 1.355-1.337 1.417l1.672 2.366h-.706zm-1.28-4.71h-.463v1.905h.378c.567 0 1.14-.336 1.148-.978 0-.753-.505-.928-1.064-.928zm6.087 4.71v-4.71h1.286v-.552h-3.113v.551h1.245v4.711h.582zm5.807.105c-.77 0-1.386-.481-1.582-1.228l-.034-.154.538-.153.063.174c.17.468.504.79.994.795.566.007 1.077-.446 1.07-1.005-.007-.404-.195-.712-.552-.88l-.833-.383c-.574-.265-1.008-.656-1.008-1.29-.006-.762.672-1.327 1.435-1.348.581-.007.98.251 1.308.733l.065.084-.456.3-.126-.168c-.203-.279-.455-.419-.797-.397-.448.014-.863.341-.855.788.008.37.252.593.58.747l.882.405c.575.258.911.676.952 1.298.057.908-.727 1.69-1.644 1.682zm-32.459-3.267v-1.549h2.12v-.551h-2.729v5.262h2.715v-.55h-2.135v-2.088h2.079v-.523h-2.05zm6.5 3.267c-.77 0-1.386-.481-1.582-1.228l-.034-.154.538-.153.064.174c.167.468.503.79.994.795.565.007 1.076-.446 1.07-1.005-.008-.404-.197-.712-.553-.88l-.833-.383c-.573-.265-1.007-.656-1.007-1.29-.007-.762.671-1.327 1.434-1.348.58-.007.98.251 1.31.733l.062.084-.456.3-.125-.168c-.203-.279-.456-.419-.798-.397-.447.014-.86.341-.853.788.006.37.25.593.58.747l.882.405c.574.258.91.676.951 1.298.057.908-.727 1.69-1.644 1.682zm4.61-2.73a2.746 2.746 0 002.723 2.744c1.504.007 2.756-1.242 2.75-2.743-.007-1.486-1.253-2.708-2.75-2.702-1.491.008-2.716 1.216-2.723 2.702zm.581 0a2.161 2.161 0 012.1-2.149 2.154 2.154 0 012.21 2.136c.023 1.194-.97 2.213-2.168 2.206-1.19-.007-2.156-1.005-2.142-2.192zm-44.319 2.625v-5.262h.588v4.711h1.42v.551h-2.008zm4.849-1.123c.197.747.812 1.228 1.582 1.228.917.008 1.7-.774 1.644-1.682-.04-.622-.377-1.04-.951-1.298l-.882-.405c-.329-.154-.574-.377-.581-.747-.007-.447.407-.774.854-.788.342-.022.595.118.798.397l.126.168.455-.3-.063-.084c-.33-.482-.729-.74-1.309-.733-.762.02-1.441.586-1.435 1.347 0 .635.435 1.026 1.01 1.291l.83.384c.357.167.547.475.554.88.007.558-.505 1.011-1.07 1.004-.491-.006-.826-.327-.995-.795l-.063-.174-.538.153.034.154zm13.68 1.123l-.567-.712-.287.217c-.468.37-.868.607-1.42.586-.805-.021-1.469-.6-1.483-1.445-.014-.62.37-1.123.952-1.5l.397-.258-.11-.154c-.253-.335-.414-.58-.414-.991.008-.608.476-1.09 1.127-1.096.657 0 1.118.46 1.14 1.061.014.447-.26.754-.63 1.047l-.308.23 1.093 1.424.6-.67.407.342-.644.768.882 1.151h-.735zm-2.114-2.708l-.426.28c-.399.272-.671.704-.657 1.047.027.46.293.802.734.928.287.083.741-.048 1.07-.322l.476-.39-1.197-1.543zm.295-2.143c-.308.007-.532.259-.553.572-.007.196.056.322.175.482l.265.37.357-.272c.23-.174.378-.377.343-.67-.041-.335-.294-.496-.587-.482zm39.043-4.907h-1.442v-10.54h1.442v10.54zm10.971 0l-1.273-2.722H88.61l-1.217 2.722h-1.511l4.927-10.944L96 30.006h-1.552zm-3.638-7.692l-1.68 3.797h3.485l-1.805-3.797zM4.54 37.203v2.561h.58v-5.263h-.594v2.15H1.833v-2.15H1.26v5.263h.603v-2.561h2.68zm6.277 2.68a2.745 2.745 0 01-2.722-2.743c.007-1.486 1.231-2.694 2.722-2.702 1.497-.006 2.742 1.216 2.75 2.702.006 1.5-1.246 2.75-2.75 2.742zm-.042-4.893a2.16 2.16 0 00-2.1 2.15c-.013 1.187.952 2.185 2.142 2.192 1.196.007 2.19-1.012 2.17-2.206a2.155 2.155 0 00-2.212-2.136zM0 24.91c.057 2.92 2.421 5.39 5.318 5.334 3.065-.07 4.997-2.247 4.997-4.97v-.587H6.313v1.271H8.79c-.043 1.787-1.666 3.002-3.4 2.96-2.352-.056-4.003-1.801-4.003-3.95 0-2.304 1.75-4.356 4.128-4.3 1.399.042 2.518.67 3.219 1.605l1.035-.922c-1.147-1.396-2.407-1.982-4.212-2.01-3.05-.056-5.625 2.526-5.556 5.57z" fill="#868789"/>
</svg>
