<svg fill="none" xmlns="http://www.w3.org/2000/svg" viewBox="0 0 109 23">
  <path d="M15.556 20.022H4.024C1.806 20.022 0 18.176 0 15.9V4.113C0 1.846 1.806 0 4.024 0h11.532c2.228 0 4.024 1.846 4.024 4.113v11.786c.01 2.277-1.796 4.123-4.024 4.123z" fill="#FDDB32"/>
  <path d="M5.984 16.128v-1.943c0-.16-.12-.281-.275-.281H3.807a.274.274 0 00-.275.281v1.943c0 .157.12.282.275.282H5.71a.274.274 0 00.275-.282zm10.072-1.668V4.887c0-.713-.558-1.283-1.256-1.283H5.436c-.19 0-.3.07-.422.194L3.147 5.725c-.137.14-.044.351.163.351h8.47l-5.255 5.371a.45.45 0 00-.136.352v1.415c0 .166.112.281.275.281H8.05c.163 0 .258-.045.343-.14l5.256-5.37v8.657c0 .211.207.306.343.166l1.884-1.915a.578.578 0 00.18-.431v-.003zm28.431-2.472l3.836-5.414c.112-.167.027-.333-.163-.333h-2.089c-.112 0-.258.044-.326.166l-2.528 3.772-2.589-3.772c-.068-.114-.207-.166-.326-.166h-2.228a.194.194 0 00-.19.194c0 .045 0 .097.044.14l3.843 5.43-4.238 5.96c-.113.166-.027.333.139.333h2.106c.112 0 .258-.045.326-.167l2.932-4.315 2.977 4.315c.068.122.207.167.326.167h2.245c.112 0 .19-.097.19-.194 0-.045-.026-.097-.044-.14l-4.238-5.976h-.005zM35.919 1.714c.163 0 .275.115.275.281v1.61c0 .167-.112.281-.275.281h-7.49v4.781h6.725c.163 0 .275.115.275.282v1.599c0 .167-.112.281-.275.281h-6.726v5.24h7.491c.163 0 .275.114.275.281v1.662c0 .167-.112.281-.275.281h-8.763c-.67 0-1.177-.518-1.177-1.203V2.917c0-.685.507-1.203 1.177-1.203h8.763zm20.743 4.148c-2.27 0-3.473 1.019-4.17 1.968V6.52c0-.167-.113-.282-.276-.282h-1.83c-.164 0-.276.122-.276.282v15.61c0 .167.112.281.276.281h1.857c.163 0 .275-.114.275-.281v-5.38c.67.95 1.875 1.898 4.146 1.898 3.688 0 5.84-2.84 5.84-6.397 0-3.558-2.15-6.39-5.84-6.39h-.002zm-.412 10.75c-2.27 0-3.827-1.565-3.827-4.333 0-2.767 1.555-4.384 3.827-4.384 2.272 0 3.8 1.61 3.8 4.384 0 2.776-1.53 4.333-3.8 4.333zm13.562-10.75c-3.224 0-5.796 2.374-5.796 6.303 0 3.928 2.27 6.494 6.096 6.494 2.201 0 4.034-.994 5.168-2.374a.294.294 0 00.095-.212.298.298 0 00-.095-.211l-1.068-1.072a.282.282 0 00-.207-.097c-.07 0-.137.045-.207.115-.878.976-2.021 1.801-3.664 1.801-2.398 0-3.551-1.512-3.732-3.692h8.902c.163 0 .275-.122.275-.281v-.476c0-3.603-2.132-6.303-5.77-6.303l.003.005zm-3.32 5.212c.276-1.978 1.29-3.269 3.303-3.269 2.014 0 3.157 1.203 3.31 3.269h-6.612zm42.233-4.834h-1.833c-.164 0-.276.115-.276.282V7.85c-.697-.95-1.901-1.968-4.222-1.968-3.636 0-5.796 2.84-5.796 6.397 0 3.558 2.157 6.398 5.796 6.398 2.321 0 3.525-1.02 4.222-1.968v1.3c0 .167.112.282.276.282h1.833c.163 0 .275-.115.275-.282V6.522c.01-.167-.112-.281-.275-.281zm-5.865 10.4c-2.269 0-3.8-1.61-3.8-4.385 0-2.775 1.531-4.332 3.8-4.332s3.827 1.565 3.827 4.332c0 2.768-1.558 4.385-3.827 4.385zM89.212 1.714h-1.857c-.163 0-.275.115-.275.281V7.85c-.698-.95-1.875-1.968-4.198-1.968-3.636 0-5.796 2.84-5.796 6.397 0 3.558 2.157 6.398 5.796 6.398 2.323 0 3.525-1.02 4.222-1.968v1.3c0 .167.112.282.275.282h1.833c.164 0 .276-.115.276-.282V1.995c0-.166-.112-.281-.276-.281zm-5.864 14.925c-2.27 0-3.8-1.61-3.8-4.385 0-2.775 1.53-4.332 3.8-4.332 2.27 0 3.827 1.565 3.827 4.332 0 2.768-1.558 4.385-3.827 4.385zm10.91-14.925c.163 0 .276.115.276.281V3.94c0 .167-.113.281-.276.281h-1.901c-.163 0-.276-.114-.276-.281V1.995c0-.166.112-.281.276-.281h1.901zm-.015 4.526c.164 0 .276.115.276.282V18.01c0 .167-.112.282-.276.282h-1.857c-.163 0-.275-.115-.275-.282V6.522c0-.167.112-.281.275-.281h1.857z" fill="#191E3B"/>
</svg>
