<svg fill="none" xmlns="http://www.w3.org/2000/svg" viewBox="0 0 96 52">
  <path fill="#fff" d="M0 0h96v52H0z"/>
  <path fill-rule="evenodd" clip-rule="evenodd" d="M86.054 6.131c-.803-.396-1.397-.593-1.788-.593-.48 0-.97.443-1.444 1.332l-1.72-1.438.38-.518c.212-.306.447-.595.704-.865.207-.223.443-.42.701-.583a2.21 2.21 0 01.736-.326 3.22 3.22 0 01.824-.104 5.54 5.54 0 012.363.671c.914.464 1.502.692 1.765.692.488 0 1.034-.47 1.625-1.399l1.667 1.373c-.84 1.652-1.977 2.484-3.413 2.484-.489 0-1.29-.244-2.4-.726zm-19.21 4.906h2.79v19.516h-2.79V11.037zm2.964 31.894a3.655 3.655 0 013.185-1.855l-.007-.013a3.757 3.757 0 013.503 2.275 3.667 3.667 0 01-.82 4.058 3.566 3.566 0 01-2.626 1.08h-.015a3.603 3.603 0 01-2.626-1.072 3.55 3.55 0 01-1.085-2.59 3.768 3.768 0 01.491-1.883zm4.652 4.333a2.726 2.726 0 001.014-1.036 2.85 2.85 0 00.37-1.432 2.77 2.77 0 00-.804-2.009 2.846 2.846 0 00-2.016-.84 2.753 2.753 0 00-1.394.388 2.83 2.83 0 00-1.037 1.036 2.954 2.954 0 00-.368 1.456c-.014.75.283 1.473.822 2.002a2.708 2.708 0 001.977.81c.504.003 1-.127 1.436-.375zm-39.259-3.007c-.462-.337-.788-.585-.88-.679a1.49 1.49 0 01-.317-.424 1.03 1.03 0 01-.084-.394.715.715 0 01.233-.552.84.84 0 01.615-.225c.185.002.366.052.525.145.254.184.473.411.646.67l.047.066.654-.498.026-.075-.015-.052a3.357 3.357 0 00-.924-.909 1.988 1.988 0 00-.962-.259 1.841 1.841 0 00-.898.225 1.67 1.67 0 00-.638.617 1.675 1.675 0 00-.228.868c0 .402.134.792.383 1.11.322.362.686.683 1.085.959.437.304.827.667 1.16 1.08.258.332.288.785.076 1.147a1.133 1.133 0 01-.433.397c-.186.1-.395.15-.606.147-.5 0-.935-.355-1.337-1.095l-.037-.088-.696.425-.044.062.023.06c.226.455.561.85.977 1.15.35.231.763.354 1.184.349a1.993 1.993 0 001.463-.57c.381-.357.597-.852.596-1.37a1.97 1.97 0 00-.352-1.085 5.029 5.029 0 00-1.242-1.202zm-16.114-2.14h-1.534v-.867h3.96v.868h-1.526v6.2h-.9v-6.2zM3.314 44.134h3.298V41.25h.885v7.068h-.885V45H3.314v3.318h-.888V41.25h.888v2.883zm9.515-3.057c-1.324 0-2.544.71-3.182 1.855a3.74 3.74 0 00-.494 1.883 3.627 3.627 0 001.081 2.602 3.728 3.728 0 002.635 1.073h.016a3.59 3.59 0 002.625-1.08 3.742 3.742 0 000-5.26 3.657 3.657 0 00-2.68-1.073zm2.489 5.15a2.664 2.664 0 01-1.03 1.035 2.823 2.823 0 01-1.425.376 2.693 2.693 0 01-1.977-.81 2.72 2.72 0 01-.825-2.003 2.96 2.96 0 01.365-1.455c.253-.43.615-.787 1.05-1.036a2.755 2.755 0 011.4-.389 2.895 2.895 0 012.455 1.412c.247.436.374.93.368 1.43a2.919 2.919 0 01-.392 1.44h.011zM29.28 41.25h-.89v7.068h3.531v-.857H29.28V41.25zm-2.38 7.068h-4.106V41.25h4.135v.868h-3.258v1.96h3.23v.865h-3.23v2.507h3.23v.868zm31.88 0h4.107v-.868h-3.222v-2.507h3.222v-.865h-3.222v-1.96h3.251v-.868H58.78v7.068zm26.82-6.2h-1.528v-.868h3.963v.868H86.5v6.2h-.898v-6.2zm-2.943 2.095c-.188.3-.462.538-.788.684-.392.15-.808.226-1.229.225l2.469 3.196h-1.05l-2.537-3.22-.21.021v3.199h-.888V41.25h1.466a8.235 8.235 0 011.575.096c.414.086.785.31 1.05.634.274.34.417.763.405 1.197.008.362-.083.72-.263 1.036zm-3.319-2.096v2.142l1.08.005c.332.019.664-.023.981-.124a.941.941 0 00.468-.378c.113-.177.17-.382.168-.59a1.049 1.049 0 00-.168-.575.953.953 0 00-.447-.366 2.98 2.98 0 00-.974-.114H79.34zM46.827 46.97c.153.145.334.32.538.53.237.236.442.456.62.674l.108.13-.142.028h-1l-.914-.906a5.678 5.678 0 01-1.352.86 3.114 3.114 0 01-1.177.217 1.877 1.877 0 01-1.341-.482 1.603 1.603 0 01-.51-1.207c.008-.385.127-.76.342-1.082a5.68 5.68 0 011.262-1.267 5.833 5.833 0 01-.666-.95 1.442 1.442 0 01-.176-.664 1.14 1.14 0 01.433-.924c.336-.282.765-.43 1.205-.417.286-.001.567.062.825.184.237.11.438.284.58.502.131.198.202.43.205.666a1.5 1.5 0 01-.263.777 4.765 4.765 0 01-.898.953l.972 1.018.63.634a8.55 8.55 0 00.788-.637l.057-.054.069.046.551.583-.066.052c-.291.246-.543.453-.787.63l.107.105zm-2.253-4.47a1.043 1.043 0 00-1.092 0 .443.443 0 00-.189.354c0 .106.03.21.084.301.164.278.356.538.575.777.25-.194.472-.422.656-.679a.807.807 0 00.163-.42.408.408 0 00-.197-.333zm-.317 5.003a1.75 1.75 0 01-.678.138c-.274.008-.54-.09-.74-.275a.805.805 0 01-.308-.619 1.18 1.18 0 01.263-.668c.302-.37.656-.697 1.05-.971.21.235.397.442.57.624l1.006 1.036a5.501 5.501 0 01-1.163.74v-.005zm46.078-3.926c.28.244.573.47.88.679.48.323.902.724 1.247 1.186.218.322.34.698.35 1.086a1.87 1.87 0 01-.602 1.37c-.381.38-.905.587-1.447.575a2.121 2.121 0 01-1.189-.35 3.202 3.202 0 01-.971-1.15l-.055-.07.07-.052.694-.42.039.076c.402.738.85 1.103 1.344 1.103.21.002.419-.048.604-.148a1.047 1.047 0 00.573-.914 1.058 1.058 0 00-.218-.616 5.575 5.575 0 00-1.156-1.083 6.277 6.277 0 01-1.09-.958c-.245-.32-.38-.71-.383-1.111a1.659 1.659 0 01.875-1.484c.271-.151.578-.23.89-.226.337.002.669.091.96.26.366.239.68.548.922.908l.016.052-.023.075-.654.498-.048-.065a2.68 2.68 0 00-.643-.671 1.062 1.062 0 00-.54-.145.828.828 0 00-.61.225.714.714 0 00-.236.552c0 .136.028.27.084.394.083.156.19.3.317.424zm-33.585.635a1.76 1.76 0 01-.8.684 3.373 3.373 0 01-1.214.225l2.468 3.196h-1.05l-2.54-3.22-.214.021v3.199h-.883V41.25h1.465a8.28 8.28 0 011.576.095 1.82 1.82 0 011.455 1.831c.011.363-.08.722-.263 1.037zm-3.334-2.096v2.142l1.087.005c.33.017.661-.024.977-.121a.947.947 0 00.47-.381c.11-.178.168-.382.168-.59 0-.205-.06-.404-.171-.576a.936.936 0 00-.446-.365 2.937 2.937 0 00-.972-.114h-1.113zm12.004 1.461c.087.088.381.316.874.68.484.321.909.722 1.255 1.185.223.32.344.698.35 1.086a1.87 1.87 0 01-.599 1.37 1.992 1.992 0 01-1.447.575 2.138 2.138 0 01-1.189-.35 3.176 3.176 0 01-.969-1.153l-.034-.062.053-.057.685-.417.042.07c.396.741.845 1.106 1.344 1.106.214.002.424-.049.612-.148a1.04 1.04 0 00.562-.914 1.04 1.04 0 00-.216-.616 5.577 5.577 0 00-1.155-1.083 6.315 6.315 0 01-1.087-.958 1.855 1.855 0 01-.386-1.111 1.658 1.658 0 01.231-.868 1.59 1.59 0 01.649-.616c.27-.152.576-.23.887-.226.337.002.666.091.956.26.369.239.685.548.932.908l.024.055-.032.072-.664.503-.047-.075a2.692 2.692 0 00-.639-.666 1.059 1.059 0 00-.543-.145.829.829 0 00-.614.223.719.719 0 00-.24.554.9.9 0 00.09.391c.075.162.182.307.315.427zM42.012 27.846h-8.86v-6.43h8.86v-2.71h-8.86V13.75h8.941v-2.714H30.361v19.518h11.65v-2.709zm44.764-16.81h-1.038l-9.35 19.517h3.101l2.941-6.123h7.575l2.97 6.123H96l-9.224-19.516zM83.724 21.74l2.518-5.26 2.518 5.26h-5.036zM18.53 11.037l-7.323 14.727-7.405-14.727h-.971L0 30.555h2.728L4.44 18.183l6.23 12.372h1.038l6.158-12.274 1.72 12.274h2.767l-2.849-19.518h-.974zm33.962 16.838h7.275v2.68H49.708V11.037h2.784v16.838z" fill="#868789"/>
</svg>
