<svg fill="none" xmlns="http://www.w3.org/2000/svg" viewBox="0 0 203 110">
  <path d="M49.153 109.052a2.487 2.487 0 001.595-.439 1.267 1.267 0 00.532-1.063 1.268 1.268 0 00-.532-1.063 2.773 2.773 0 00-1.803-.439H46.22v3.097l2.934-.093zm-.323-3.928c.501.036.998-.121 1.386-.439a1.229 1.229 0 00.648-1.156 1.528 1.528 0 00-.532-1.063 2.733 2.733 0 00-1.387-.323H46.22v2.981h2.61zm-3.605-3.929h3.72c.47.006.937.076 1.387.208.333.181.65.39.947.624.348.378.538.874.532 1.387.028.252-.012.507-.116.739-.069.193-.17.373-.3.532 0 .231-.324.323-.44.439-.115.115-.323.208-.53.3.207 0 .53.231.739.324.208.092.439.208.531.439.093.231.324.3.44.531.112.265.182.546.208.832.01.38-.104.753-.324 1.063a2.016 2.016 0 01-.624.763c-.31.167-.636.306-.97.416a6.079 6.079 0 01-1.272.208h-3.928v-8.805zm22.321 0l-2.982 4.345-2.957-4.345h-1.179l3.605 5.315V110h.97v-3.49l3.606-5.315h-1.063zm28.637 0l-3.19 4.784-3.212-4.784h-.947V110h.947v-7.118l3.213 4.691 3.189-4.691V110h.947v-8.805h-.947zm10.847 0V110h6.401v-.948H108v-3.073h4.784v-.855H108v-2.981h5.431v-.948h-6.401zm15.85 0V110h5.846v-.948h-4.876v-7.857h-.97zM138.097 110h.948v-8.805h-.948V110zm14.555-7.65l2.034 4.368h-3.952l1.918-4.368zm-.416-1.155L148.308 110h.947l1.063-2.311h4.784l.971 2.311h1.063l-3.952-8.805h-.948zm0-.739h.763l1.479-1.387-1.063-.44-1.179 1.827zM6.933 74.111a9.496 9.496 0 002.31-.323 5.407 5.407 0 001.896-.948c.535-.438.975-.98 1.294-1.594.287-.63.43-1.318.416-2.01v-.116a4.229 4.229 0 00-.416-2.01 3.536 3.536 0 00-1.179-1.595 7.743 7.743 0 00-1.918-.855 8.624 8.624 0 00-2.403-.324H1.387v9.775h5.546zM0 62.973h6.933a8.296 8.296 0 013.073.37 7.119 7.119 0 012.311 1.155 5.245 5.245 0 011.502 1.918c.34.845.521 1.746.532 2.658.022.956-.2 1.903-.647 2.75a6.494 6.494 0 01-1.595 2.033 7.212 7.212 0 01-2.45 1.156c-.961.312-1.97.46-2.98.439H1.387v7.418H0V62.973zM36.599 76.03l-5.107-11.555-5.223 11.554H36.6zm-5.87-13.173h1.618l9.243 20.059h-1.594l-2.565-5.523H25.876l-2.773 5.523h-1.502l9.128-20.06zm27.465 10.515a8.665 8.665 0 002.31-.323 6.122 6.122 0 001.803-.948 4.923 4.923 0 001.155-1.386 4.158 4.158 0 00.44-1.919 3.813 3.813 0 00-1.502-3.281 5.986 5.986 0 00-4.137-1.179h-6.702v9.036h6.633zm-8.089-10.4h8.297c1.09.006 2.173.178 3.212.51a5.984 5.984 0 012.31 1.501c.476.44.84.987 1.064 1.595.249.682.39 1.4.416 2.126a6.932 6.932 0 01-.416 2.31 5.87 5.87 0 01-3.097 2.867 7.72 7.72 0 01-2.31.647l6.493 8.48h-1.918l-6.286-8.272h-6.262v8.273h-1.503V62.973zM88.29 76.03l-5.108-11.555-5.2 11.554H88.29zm-5.755-13.173h1.387l9.244 20.059H91.57l-2.542-5.523H77.475l-2.45 5.523h-1.479l8.99-20.06zm25.878 18.788a10.651 10.651 0 003.72-.74 7.979 7.979 0 004.622-4.621 7.924 7.924 0 00.647-3.282v-.115a8.381 8.381 0 00-.647-3.282 8.14 8.14 0 00-1.802-2.75 8.508 8.508 0 00-2.774-1.918 10.137 10.137 0 00-3.72-.647h-5.153V81.6l5.107.046zm-6.586-18.672h6.586a13.22 13.22 0 014.252.74 11.285 11.285 0 013.304 2.125 9.507 9.507 0 012.126 3.166 9.23 9.23 0 01.74 3.929 9.521 9.521 0 01-.74 3.928 9.494 9.494 0 01-5.43 5.316 11.12 11.12 0 01-4.252.74h-6.586V62.972zm26.804 0h1.479v19.966h-1.479V62.973zm18.832 20.267a10.4 10.4 0 01-4.183-.856 12.767 12.767 0 01-3.744-2.31l.971-1.156c.532.531 1.063.947 1.595 1.386a9.021 9.021 0 001.71.832c.541.266 1.106.483 1.687.648.677.048 1.356.048 2.033 0a5.85 5.85 0 002.011-.301 3.672 3.672 0 001.594-.763 8.89 8.89 0 001.063-1.27 4.362 4.362 0 00.324-1.595 6.022 6.022 0 00-.208-1.387 2.968 2.968 0 00-.855-1.155 11.283 11.283 0 00-1.71-.97c-.74-.209-1.687-.417-2.75-.74a17.38 17.38 0 01-3.097-.855 7.402 7.402 0 01-2.01-1.156 3.948 3.948 0 01-1.179-1.502 6.423 6.423 0 01-.324-2.126c-.02-.726.13-1.446.44-2.103a4.315 4.315 0 011.271-1.594 8.03 8.03 0 012.01-1.179 9.453 9.453 0 012.565-.416c1.268-.023 2.53.189 3.721.624a16.558 16.558 0 012.981 1.803l-.855 1.178a10.453 10.453 0 00-2.866-1.71 9.98 9.98 0 00-3.096-.531 5.752 5.752 0 00-1.918.323 2.998 2.998 0 00-1.479.855 5.761 5.761 0 00-1.063 1.179 3.39 3.39 0 00-.324 1.479c.016.499.086.995.208 1.479.259.441.587.84.971 1.178.52.385 1.087.703 1.687.948.949.297 1.913.543 2.888.74 1.794.3 3.498.995 4.992 2.033a4.399 4.399 0 011.502 3.49v.115a5.151 5.151 0 01-.532 2.126 4.78 4.78 0 01-1.386 1.803 5.29 5.29 0 01-2.034 1.063 6.334 6.334 0 01-2.542.416m23.471-.023a9.8 9.8 0 01-3.189-.532 6.376 6.376 0 01-2.565-1.687 7.856 7.856 0 01-1.71-2.657 10.259 10.259 0 01-.624-3.72V62.972h1.479v11.555a7.741 7.741 0 001.987 5.43 5.978 5.978 0 004.876 2.01 7.166 7.166 0 002.658-.53 4.63 4.63 0 002.033-1.387 5.202 5.202 0 001.387-2.311c.31-1.034.451-2.11.416-3.19V62.974h1.502v11.555a10.46 10.46 0 01-.647 3.813 7.784 7.784 0 01-1.595 2.773 7.967 7.967 0 01-2.565 1.687 10.49 10.49 0 01-3.281.531m24.811-.093a10.817 10.817 0 01-4.16-.856 12.55 12.55 0 01-3.628-2.31l.971-1.156c.531.531 1.063.947 1.594 1.386.512.314 1.045.592 1.595.832a8.285 8.285 0 001.779.694 14.09 14.09 0 002.034 0 6.303 6.303 0 002.01-.3 3.415 3.415 0 001.502-.763 3.741 3.741 0 001.063-1.271c.2-.508.302-1.05.301-1.595a2.987 2.987 0 00-.208-1.386 2.035 2.035 0 00-.855-1.156 7.775 7.775 0 00-1.687-.97l-2.773-.74a15.952 15.952 0 01-2.981-.855 8.257 8.257 0 01-2.126-1.156 5.54 5.54 0 01-1.179-1.502 6.381 6.381 0 01-.3-2.103 4.61 4.61 0 01.416-2.126 4.88 4.88 0 011.386-1.594 5.32 5.32 0 012.011-1.179 9.242 9.242 0 012.449-.416 9.867 9.867 0 013.559.624 16.516 16.516 0 013.097 1.803l-.971 1.178a10.447 10.447 0 00-2.865-1.71 9.731 9.731 0 00-2.982-.531 6.217 6.217 0 00-2.01.323 4.438 4.438 0 00-1.502.855 3.309 3.309 0 00-.948 1.179 4.252 4.252 0 000 2.958c.182.458.476.864.855 1.178.564.383 1.169.7 1.803.948.763.208 1.71.532 2.773.74 1.794.3 3.498.995 4.992 2.033a4.4 4.4 0 011.502 3.49v.115c.02.733-.13 1.461-.439 2.126a7.881 7.881 0 01-1.364 1.803 7.767 7.767 0 01-2.033 1.063 7.284 7.284 0 01-2.658.416" fill="#5D5B50"/>
  <path d="M95.332 25.79c0 .116.208 0 0 0a5.847 5.847 0 00-3.743-2.45c-1.77-.345-3.6-.234-5.315.324a9.244 9.244 0 00-5.108 3.605 6.748 6.748 0 00-1.063 5.2 3.165 3.165 0 001.919 2.865 2.31 2.31 0 002.31.324c.532-.208.647-.647.324-1.271-.324-.624-1.063-.647-1.387-.74-1.063-.439-2.126-2.31-.624-4.991 0 1.895 1.919 4.136 4.044 2.75 1.156-.74 1.272-2.866 1.803-3.605a4.622 4.622 0 013.305-2.45 9.08 9.08 0 013.397.532" fill="#432B91"/>
  <path d="M96.914 24.519c.116.116.208.208.116-.323a15.068 15.068 0 00-4.9-6.933 10.653 10.653 0 00-6.932-2.866 4.228 4.228 0 00-3.72 2.01 8.204 8.204 0 00-1.064 4.183c.231 1.387 1.502 3.305 2.034 2.127.208-.532-.323-1.18-.323-2.311 0-1.595.739-1.826.739-1.826-.416 2.31 1.826 3.397 2.773 2.773a7.326 7.326 0 014.252-.947c5.107.623 6.702 3.281 6.933 4.02m2.345-.762c-.23-5.94-2.888-15.483-7.672-17.84a3.235 3.235 0 00-2.311-.3c-1.178.3-2.126 1.363-2.126 3.489 0 1.71.74 2.31 2.45 3.189a17.31 17.31 0 015.638 4.622 17.215 17.215 0 013.813 6.794c.231.531.231.323.231 0m11.34 1.641a4.941 4.941 0 013.305 2.45c.416.739.647 2.865 1.802 3.604 2.126 1.387 3.952-.855 4.045-2.75 1.386 2.658.439 4.622-.624 4.992-.324 0-1.179.208-1.387.74-.208.53-.231 1.062.324 1.27a2.446 2.446 0 002.31-.323 3.601 3.601 0 001.919-2.866 7.283 7.283 0 00-1.063-5.2 9.247 9.247 0 00-5.108-3.604 10.722 10.722 0 00-5.338-.324 5.57 5.57 0 00-3.72 2.45s0 .208 0 0a8.64 8.64 0 013.397-.532" fill="#432B91"/>
  <path d="M112.562 20.498a7.511 7.511 0 014.252.947c.947.624 3.189-.416 2.773-2.773 0 0 .624.231.624 1.826 0 1.04-.532 1.687-.208 2.31.531 1.18 1.802-.739 1.918-2.125a7.139 7.139 0 00-.855-4.253 4.35 4.35 0 00-3.721-2.01 11.09 11.09 0 00-7.14 2.704 15.761 15.761 0 00-4.784 6.933c-.208.531 0 .439.116.323.323-.74 1.802-3.397 6.932-4.02m-9.252 3.303c.3-5.939 2.865-15.483 7.764-17.84a3.144 3.144 0 012.265-.254c1.179.3 2.126 1.363 2.01 3.49 0 1.71-.623 2.31-2.31 3.189a19.425 19.425 0 00-5.639 4.621 18.482 18.482 0 00-3.836 6.794c0 .532-.208.324-.208 0m.472 9.892a2.567 2.567 0 01-4.27 2.16 2.565 2.565 0 011.705-4.471 2.494 2.494 0 012.565 2.31z" fill="#432B91"/>
  <path d="M95.216 28.678a4.623 4.623 0 00-.531 1.918c.02.471.13.934.323 1.364a1.41 1.41 0 00.97.763.554.554 0 00.417 0 5.5 5.5 0 011.918-2.45 3.234 3.234 0 012.45-1.063h.924a3.65 3.65 0 012.542 1.063c.82.63 1.445 1.48 1.802 2.45h.278a1.407 1.407 0 00.947-.763c.193-.43.303-.893.324-1.364a4.3 4.3 0 00-.532-1.918 6.932 6.932 0 00-5.846-3.281h-.208a7.07 7.07 0 00-5.778 3.282m9.257-20.406a70.092 70.092 0 00-2.796 12.525c0 .855-.231 2.311-.231 2.565 0-.323-.208-1.71-.324-2.773a59.1 59.1 0 00-2.75-12.317c-.762-2.01-.855-2.657.416-4.02A25.136 25.136 0 00101.561 0a24.335 24.335 0 002.427 4.252c1.294 1.364 1.179 2.01.439 4.021" fill="#432B91"/>
</svg>
