<svg fill="none" xmlns="http://www.w3.org/2000/svg" viewBox="0 0 96 52">
  <path fill="#fff" d="M0 0h96v52H0z"/>
  <path d="M67.067 31.877c-5.495 0-5.56-2.761-4.78-4.488 1.137-2.521 5.154-6.18 6.362-9.112.933-2.265.914-3.99.914-3.99h-5.397c.53 1.882.1 7.897-1.753 10.546-2.014 2.97-7.74 6.358-14.703 6.358-2.372 0-5.512-.848-5.512-3.027 0-.534.086-.848.086-.848 11.857-1.602 16.806-3.956 17.14-7.424C59.66 17.413 57.58 14 52.79 14c-5.12 0-11.308 5.856-11.776 12.654-1.285 2.958-4.258 3.602-5.884 3.602-1.738 0-4.251-1.202-5.852-1.202a3.87 3.87 0 00-2.149.623l-.229-.31c1.28-1.29 2.607-2.49 4.206-3.87 2.89-2.634 5.926-4.613 8.827-6.231.046-.914-.606-3.428-1.74-4.978H22.989a21.89 21.89 0 00-.713 4.714H35.62c-.61 1.03-1.096 1.694-1.832 2.517-1.15 1.286-2.45 2.465-4.187 3.755-2.605 1.824-7.27 4.093-9.6 5.827.593 2.358 1.6 4.403 3.428 6.005 1.784-4.538 2.954-6.341 4.325-6.341 2.195 0 2.624 6.519 6.693 6.519 1.907 0 4.21-1.189 6.16-8.486l.4-.025c.362 5.781 3.062 8.51 6.753 8.51 4.637 0 8.88-4.545 11.876-8.652l.374.18c-.874 2.137-1.293 4.398-.72 5.542.712 1.427 2.372 2.237 6.064 2.237h9.891a20.73 20.73 0 00.756-4.714h-8.933v.001zM52.284 19.006c2.178 0 2.963 1.366 2.963 2.122 0 1.29-3.714 3.123-12.523 4.858 1.308-3.113 5.252-6.98 9.56-6.98z" fill="#868789"/>
</svg>
